<?xml version="1.0" standalone="no"?>
<!DOCTYPE svg PUBLIC "-//W3C//DTD SVG 20010904//EN"
 "http://www.w3.org/TR/2001/REC-SVG-20010904/DTD/svg10.dtd">
<svg version="1.0" xmlns="http://www.w3.org/2000/svg"
 width="810.000000pt" height="810.000000pt" viewBox="0 0 810.000000 810.000000"
 preserveAspectRatio="xMidYMid meet">
<metadata>
Created by potrace 1.11, written by Peter Selinger 2001-2013
</metadata>
<g transform="translate(0.000000,810.000000) scale(0.100000,-0.100000)"
fill="#000000" stroke="none">
<path d="M3200 5911 c0 -5 11 -42 24 -82 13 -41 34 -110 46 -154 13 -44 27
-84 32 -89 4 -6 8 -20 8 -32 0 -11 11 -37 24 -57 13 -19 30 -51 37 -71 7 -20
17 -36 21 -36 4 0 8 -5 8 -10 0 -6 11 -33 24 -60 14 -28 28 -65 32 -83 3 -18
10 -34 13 -37 4 -3 26 -45 50 -95 23 -49 69 -142 101 -205 32 -63 61 -133 65
-155 4 -22 15 -72 26 -111 18 -67 18 -77 4 -209 -9 -76 -18 -141 -20 -146 -3
-4 -7 -61 -9 -126 -2 -93 1 -135 17 -198 26 -106 23 -140 -19 -238 -20 -45
-45 -104 -56 -132 -11 -27 -34 -70 -52 -95 -18 -25 -36 -64 -40 -85 -10 -52
-67 -154 -120 -214 -37 -42 -44 -56 -49 -108 -6 -60 9 -148 34 -195 17 -32 40
-115 40 -150 2 -42 -36 -138 -62 -160 -19 -17 -22 -15 -69 32 -28 28 -59 50
-70 50 -12 0 -45 -23 -75 -51 -55 -52 -199 -149 -222 -149 -17 0 -54 -37 -93
-95 -19 -27 -58 -77 -87 -109 -29 -33 -53 -63 -53 -68 0 -4 1213 -8 2695 -8
l2695 0 0 1870 0 1870 -2450 0 c-1388 0 -2450 -4 -2450 -9z m1217 -1387 c31
-16 59 -33 60 -39 2 -5 -14 -30 -35 -54 l-38 -45 -45 22 c-86 41 -159 19 -195
-60 -27 -61 -27 -246 0 -302 38 -77 123 -97 206 -50 l45 25 37 -43 c21 -24 36
-47 35 -53 -7 -22 -100 -74 -153 -85 -92 -19 -205 8 -272 66 -25 21 -55 62
-74 102 -32 64 -33 71 -33 187 0 111 2 125 28 180 60 129 160 188 304 181 55
-2 86 -10 130 -32z m557 2 c66 -32 108 -80 138 -156 31 -77 32 -260 3 -339
-45 -123 -150 -194 -285 -195 -198 -1 -305 110 -317 329 -15 254 110 402 328
392 58 -3 90 -10 133 -31z m376 -38 c73 -346 108 -500 113 -488 4 8 27 123 52
255 26 132 49 250 52 263 5 21 10 22 94 22 65 0 89 -3 89 -12 -1 -7 -40 -161
-89 -343 l-88 -330 -115 -3 -116 -3 -16 53 c-8 29 -49 177 -91 328 -42 151
-78 283 -81 293 -5 15 4 17 90 17 l95 0 11 -52z m630 -293 l0 -345 -90 0 -90
0 0 345 0 345 90 0 90 0 0 -345z m505 312 c108 -50 148 -106 166 -232 23 -154
-23 -301 -114 -362 -71 -48 -106 -55 -284 -60 l-163 -5 0 347 0 347 168 -4
c158 -3 170 -5 227 -31z m1225 -2 c78 -40 110 -115 110 -255 0 -215 -72 -319
-274 -395 -38 -14 -70 -24 -72 -22 -2 2 -7 18 -10 35 -5 24 -3 32 8 32 30 0
155 70 190 106 41 44 68 99 68 141 -1 23 -2 25 -10 11 -6 -9 -26 -26 -46 -39
-44 -27 -125 -30 -171 -6 -138 72 -138 311 1 384 62 33 150 36 206 8z m-420
-320 l0 -335 -45 0 -45 0 -2 284 -3 285 -73 -45 c-40 -24 -75 -44 -77 -44 -2
0 -11 13 -20 30 l-15 30 57 36 c32 20 78 49 103 65 29 18 58 29 83 29 l37 0 0
-335z m-260 -20 l0 -35 -140 0 -140 0 0 35 0 35 140 0 140 0 0 -35z m-2880
-545 c-23 -23 -27 -86 -7 -114 10 -14 23 -17 45 -14 17 2 29 1 26 -4 -11 -17
-63 -8 -78 14 -29 40 -11 138 25 138 5 0 0 -9 -11 -20z m65 10 c3 -6 -1 -7 -9
-4 -18 7 -21 14 -7 14 6 0 13 -4 16 -10z m85 -10 c-41 -41 -17 -130 36 -130
52 0 72 104 27 139 -13 9 -14 12 -3 9 41 -12 51 -118 14 -145 -47 -34 -104 2
-104 65 0 37 22 82 41 82 5 0 0 -9 -11 -20z m244 14 c21 -8 21 -60 -1 -72 -15
-9 -14 -13 7 -48 13 -20 19 -35 13 -31 -6 4 -20 22 -31 41 -21 35 -21 35 -1
41 15 5 19 14 17 33 -2 22 -9 28 -35 30 l-32 3 -4 -78 -3 -78 -2 83 -2 82 29
0 c16 0 36 -3 45 -6z m115 -13 c-27 -22 -33 -87 -10 -115 19 -23 68 -21 81 3
17 33 12 89 -10 111 -24 24 -14 27 12 3 23 -20 24 -90 2 -121 -15 -22 -57 -29
-81 -14 -19 12 -34 63 -28 94 7 30 29 58 47 58 6 0 0 -9 -13 -19z m213 -46
c18 -36 36 -65 40 -65 4 0 9 30 11 68 l3 67 2 -82 c1 -49 -2 -83 -8 -83 -5 0
-27 33 -47 73 l-38 72 -6 -75 -5 -75 -2 83 c-1 50 2 82 8 82 6 0 25 -29 42
-65z m188 55 c0 -5 -2 -10 -4 -10 -3 0 -8 5 -11 10 -3 6 -1 10 4 10 6 0 11 -4
11 -10z m118 -70 c0 -8 -6 1 -13 20 -7 19 -13 42 -13 50 0 8 6 -1 13 -20 7
-19 13 -42 13 -50z m63 19 c-11 -30 -20 -49 -20 -43 -1 15 30 106 35 101 2 -2
-5 -28 -15 -58z m86 -61 c-2 -24 -4 -5 -4 42 0 47 2 66 4 43 2 -24 2 -62 0
-85z m167 106 c21 -20 20 -30 -3 -53 -19 -19 -19 -20 1 -51 10 -18 17 -34 15
-37 -3 -2 -14 13 -26 33 l-22 37 21 19 c11 10 20 22 20 26 0 17 -25 32 -52 32
-27 0 -27 0 -31 -77 l-3 -78 -2 83 -2 82 34 0 c19 0 42 -7 50 -16z m99 -121
c10 -16 49 -17 65 -1 7 7 13 41 14 78 l2 65 3 -62 c5 -75 -8 -103 -45 -103
-48 0 -56 13 -58 92 l-2 73 6 -65 c4 -36 11 -71 15 -77z m180 130 c-7 -2 -13
-15 -13 -27 0 -17 10 -27 40 -39 31 -12 40 -21 40 -39 0 -13 -5 -29 -12 -36
-14 -14 -57 -16 -76 -3 -8 5 4 7 30 7 39 -1 43 1 43 24 0 18 -9 29 -33 41 -19
8 -37 21 -42 29 -10 17 5 50 23 49 9 0 9 -2 0 -6z m52 -3 c3 -6 -1 -7 -9 -4
-18 7 -21 14 -7 14 6 0 13 -4 16 -10z m213 3 c-27 -4 -28 -6 -28 -74 0 -66 1
-69 24 -69 14 0 32 7 40 16 19 19 21 94 4 114 -11 12 -10 12 5 1 12 -10 17
-27 17 -62 0 -54 -23 -79 -72 -79 l-28 0 0 80 0 80 33 -1 c30 -2 30 -2 5 -6z
m244 -2 c-23 -14 -8 -45 31 -64 39 -18 50 -50 25 -75 -14 -14 -57 -16 -76 -3
-8 5 4 7 30 7 39 -1 43 1 43 24 0 19 -9 29 -37 43 -28 12 -38 23 -38 40 0 26
7 37 24 37 6 0 5 -4 -2 -9z m53 -1 c3 -6 -1 -7 -9 -4 -18 7 -21 14 -7 14 6 0
13 -4 16 -10z m133 3 c-34 -4 -38 -7 -38 -34 0 -26 4 -29 33 -31 l32 -1 -32
-4 c-30 -4 -33 -7 -33 -38 0 -32 2 -34 38 -38 l37 -4 -42 -1 -43 -2 0 80 0 80
43 -2 42 -1 -37 -4z m175 -75 c14 -45 23 -77 18 -72 -5 5 -19 40 -31 78 -16
47 -25 64 -31 55 -5 -8 -9 -9 -9 -3 0 12 10 24 20 24 3 0 18 -37 33 -82z m99
73 c-23 -14 -8 -45 31 -64 39 -18 50 -50 25 -75 -14 -14 -57 -16 -76 -3 -8 5
4 7 30 7 39 -1 43 1 43 24 0 19 -9 29 -37 43 -28 12 -38 23 -38 40 0 26 7 37
24 37 6 0 5 -4 -2 -9z m53 -1 c3 -6 -1 -7 -9 -4 -18 7 -21 14 -7 14 6 0 13 -4
16 -10z m133 3 c-34 -4 -38 -7 -38 -34 0 -26 4 -29 33 -31 l32 -1 -32 -4 c-30
-4 -33 -7 -33 -38 0 -32 2 -34 38 -38 l37 -4 -42 -1 -43 -2 0 80 0 80 43 -2
42 -1 -37 -4z m236 1 c27 -10 19 -65 -15 -104 l-30 -35 38 -6 c38 -6 38 -6
-10 -8 l-48 -1 20 28 c11 16 27 35 36 42 24 20 19 69 -7 80 -13 5 -18 9 -11 9
6 1 18 -2 27 -5z m160 -10 c18 -18 22 -95 6 -125 -12 -21 -50 -25 -68 -7 -13
13 -16 106 -4 125 4 6 7 -19 7 -55 0 -65 1 -67 27 -70 32 -4 42 19 36 84 -2
29 -9 42 -28 51 -17 9 -20 13 -8 13 9 0 24 -7 32 -16z m116 8 c0 -5 -12 -14
-27 -21 l-28 -12 25 21 c29 22 30 23 30 12z m154 -14 c20 -29 21 -65 1 -65
-11 0 -12 4 -4 13 15 18 1 54 -24 64 -17 7 -18 9 -5 9 9 1 24 -9 32 -21z m-61
-8 c-3 -12 -8 -19 -11 -16 -5 6 5 36 12 36 2 0 2 -9 -1 -20z m-958 -75 c-10
-30 -20 -53 -22 -51 -3 2 3 29 13 60 10 31 20 54 22 51 2 -2 -4 -29 -13 -60z
m-1482 -7 c16 -50 14 -67 -3 -23 -13 34 -24 81 -18 75 3 -3 12 -26 21 -52z
m2465 21 c11 0 12 -2 4 -6 -15 -6 -42 14 -42 31 0 6 5 3 11 -6 5 -10 18 -18
27 -19z m-2548 -26 c-11 -17 -11 -17 -6 0 3 10 6 24 7 30 0 9 2 9 5 0 3 -7 0
-20 -6 -30z m2571 -16 l-24 -22 19 27 c10 14 21 24 23 22 3 -3 -6 -15 -18 -27z
m-2367 -11 c-6 -16 -24 -13 -24 5 0 6 5 7 10 4 6 -3 10 -1 10 6 0 7 2 10 5 7
3 -3 3 -13 -1 -22z"/>
<path d="M4750 4402 c-41 -41 -53 -98 -48 -232 2 -98 6 -120 25 -151 51 -82
157 -78 199 8 27 54 28 292 2 340 -25 45 -56 63 -106 63 -35 0 -49 -6 -72 -28z"/>
<path d="M6270 4195 l0 -215 48 0 c57 0 104 26 129 72 14 26 18 56 18 143 0
166 -33 215 -145 215 l-50 0 0 -215z"/>
<path d="M7563 4446 c-49 -22 -73 -69 -73 -141 0 -140 112 -190 213 -96 l41
39 -11 72 c-9 59 -17 79 -40 102 -35 34 -86 44 -130 24z"/>
<path d="M1665 5700 c-11 -4 -40 -14 -64 -21 -24 -7 -45 -19 -48 -26 -3 -7
-15 -10 -32 -7 -18 4 -32 0 -40 -10 -7 -8 -28 -18 -47 -22 -37 -7 -74 -45 -74
-75 0 -10 13 -33 29 -51 16 -19 31 -51 36 -75 4 -24 11 -45 16 -49 5 -3 9 -12
9 -21 0 -15 -2 -14 -18 0 -26 24 -38 21 -64 -13 -22 -31 -58 -41 -58 -16 0 7
10 26 21 41 12 15 22 43 23 62 1 51 -30 71 -123 77 -70 4 -75 5 -86 33 -7 16
-23 36 -37 45 -32 21 -97 20 -123 -2 -11 -10 -31 -20 -45 -24 -25 -6 -89 -95
-104 -143 -9 -29 8 -59 44 -78 37 -19 37 -28 1 -61 -16 -14 -32 -37 -36 -51
-8 -32 17 -71 51 -79 24 -6 24 -7 8 -25 -15 -16 -19 -17 -44 -4 -26 13 -30 13
-55 -11 -25 -23 -28 -24 -45 -9 -10 9 -25 18 -34 19 -9 1 -27 13 -40 25 -20
18 -32 22 -56 18 -17 -4 -39 -2 -49 5 -22 13 -84 3 -101 -17 -7 -8 -27 -17
-46 -21 -47 -9 -89 -60 -103 -124 -10 -44 -9 -56 6 -83 29 -52 45 -67 70 -67
13 0 41 -9 62 -19 33 -17 37 -23 33 -49 -2 -18 2 -35 12 -45 18 -17 20 -35 7
-56 -8 -12 -15 -11 -48 4 -48 23 -62 42 -63 83 0 32 -36 82 -59 82 -20 0 -57
-18 -83 -41 -15 -13 -38 -32 -52 -42 -17 -12 -26 -27 -26 -46 0 -15 -9 -36
-20 -46 -14 -13 -20 -31 -20 -62 0 -28 -4 -43 -13 -43 -7 0 -41 -21 -75 -47
l-62 -48 2 -125 c3 -124 3 -124 30 -140 26 -14 31 -13 70 7 26 14 52 20 64 17
12 -3 31 -1 42 5 35 19 81 2 96 -34 8 -18 19 -36 25 -39 14 -9 -4 -46 -23 -46
-20 0 -46 -34 -46 -59 0 -16 9 -25 30 -32 39 -14 40 -45 2 -54 -37 -8 -78 8
-112 45 -30 32 -80 41 -100 18 -45 -54 -64 -97 -70 -163 -6 -61 -4 -75 14
-110 15 -28 29 -41 46 -43 49 -6 54 -10 38 -35 -19 -28 -33 -163 -19 -172 6
-3 11 -21 11 -40 0 -22 7 -39 19 -47 15 -11 21 -31 27 -92 5 -60 11 -80 25
-89 11 -7 19 -19 19 -28 0 -16 30 -49 44 -49 4 0 23 -12 42 -27 55 -42 102
-34 129 21 3 8 7 7 11 -2 3 -7 12 -19 20 -26 18 -19 18 -25 -2 -47 -15 -16
-15 -25 -3 -85 12 -60 17 -70 53 -95 21 -16 52 -29 67 -29 15 0 31 -5 35 -11
11 -18 74 -40 96 -33 29 9 51 66 38 99 -15 39 -13 42 26 55 41 14 42 13 49
-26 5 -25 1 -32 -31 -52 -33 -22 -36 -27 -31 -59 4 -20 18 -48 32 -63 14 -14
25 -31 25 -37 0 -20 30 -43 56 -43 28 0 30 -6 9 -26 -24 -24 -18 -70 14 -106
15 -18 33 -43 40 -55 6 -13 24 -26 39 -29 15 -4 34 -13 43 -20 20 -18 133 -5
155 18 8 8 18 43 22 78 4 35 12 65 19 67 6 2 25 -10 43 -27 l31 -30 -20 -27
c-24 -29 -27 -71 -8 -96 6 -9 37 -35 67 -57 40 -30 61 -39 78 -35 12 3 31 1
42 -5 15 -8 31 -7 63 3 61 21 71 47 71 189 0 107 2 116 16 103 19 -17 46 -20
55 -5 9 14 45 12 45 -2 0 -7 -7 -22 -15 -32 -8 -11 -15 -32 -15 -47 0 -15 -12
-41 -26 -58 -18 -22 -24 -40 -22 -63 3 -29 10 -37 58 -62 70 -37 162 -44 199
-15 13 11 31 19 41 19 25 0 70 46 70 71 0 14 -18 39 -46 66 -40 36 -45 46 -40
69 4 15 2 40 -5 55 -21 52 -7 73 57 87 65 13 74 10 74 -25 0 -16 7 -27 20 -30
25 -7 25 -11 1 -31 -30 -26 -35 -74 -12 -104 23 -29 63 -39 157 -42 42 -1 68
-6 81 -18 21 -19 100 -15 118 7 6 6 22 15 37 18 16 4 35 22 49 44 12 21 36 54
51 73 106 128 113 144 82 188 -8 12 -34 27 -60 33 -56 14 -72 40 -49 75 9 14
14 32 11 40 -7 19 -32 18 -40 -1 -3 -8 -15 -15 -27 -15 -12 0 -30 -11 -41 -25
-10 -13 -36 -29 -57 -35 -21 -6 -44 -17 -51 -25 -17 -21 -44 -19 -66 6 -18 20
-18 21 6 40 24 18 51 24 98 21 14 0 32 11 50 34 15 19 34 34 42 34 8 0 26 9
40 20 14 11 29 20 34 20 5 0 26 16 48 36 22 19 42 33 46 31 4 -2 21 -10 39
-17 32 -14 43 -39 43 -101 0 -34 19 -78 34 -81 6 0 22 -2 36 -4 14 -2 50 -8
81 -13 46 -9 64 -8 94 5 39 16 104 75 106 96 1 7 3 24 4 38 1 14 8 44 15 68
20 63 6 84 -82 125 -40 19 -83 45 -96 59 l-23 25 26 17 c15 10 24 23 22 30 -3
7 8 33 24 57 16 24 29 52 29 62 0 14 4 16 19 7 11 -5 29 -10 40 -10 12 0 21
-3 22 -7 5 -58 38 -103 73 -103 12 1 51 29 89 63 60 56 68 68 76 112 10 59 35
111 68 142 15 15 23 32 21 50 -1 15 2 38 6 50 9 28 -10 87 -42 131 -27 36 -56
41 -103 17 -16 -9 -33 -14 -37 -11 -4 2 -36 -2 -71 -9 -73 -15 -89 -12 -97 20
-11 43 -1 59 38 66 56 9 115 73 124 136 9 62 18 73 65 73 45 0 107 27 113 49
15 56 16 89 1 101 -8 7 -15 27 -15 44 0 21 -8 40 -24 55 -18 17 -25 38 -30 83
-8 64 -5 61 -106 147 -42 36 -45 43 -47 90 -2 35 -9 61 -23 79 -80 103 -82
107 -106 187 -6 17 -21 35 -37 43 -15 7 -27 19 -27 26 0 18 -33 46 -53 46 -18
0 -77 105 -77 137 -1 51 -136 127 -181 103 -10 -6 -26 -10 -37 -10 -24 0 -52
-31 -52 -58 0 -28 -16 -36 -62 -33 -21 1 -47 -3 -58 -9 -17 -9 -30 -7 -64 10
-55 26 -93 15 -102 -30 -7 -35 -14 -37 -44 -12 -19 16 -21 21 -11 41 18 33 5
57 -45 82 -59 28 -65 46 -28 75 53 42 74 67 74 88 0 29 -114 138 -138 134 -11
-2 -31 3 -45 11 -21 11 -32 12 -52 3 -14 -7 -36 -12 -48 -12 -12 0 -35 -7 -51
-15 -31 -17 -50 -9 -61 25 -3 10 -20 23 -37 29 -36 13 -45 13 -73 1z m179
-269 c7 -80 2 -101 -26 -101 -19 0 -20 4 -15 58 4 40 2 63 -6 71 -9 10 -8 15
7 27 11 8 23 14 26 14 4 0 10 -31 14 -69z m-424 -315 c0 -2 3 -12 7 -21 5 -14
2 -16 -18 -10 -13 4 -21 4 -17 0 4 -5 3 -14 -3 -22 -9 -10 -15 -10 -25 -2 -17
14 -18 46 -1 52 15 7 57 8 57 3z m1290 -40 c0 -7 -11 -23 -24 -36 -14 -12 -28
-35 -31 -50 -4 -20 -14 -29 -33 -33 -44 -9 -46 8 -5 50 21 21 46 51 56 66 17
27 37 29 37 3z m-177 -195 c2 -10 17 -25 33 -32 21 -10 30 -23 32 -44 l4 -30
-40 39 c-22 21 -42 49 -45 62 -5 28 8 33 16 5z m171 -203 c11 -42 7 -54 -19
-56 -21 -1 -25 2 -23 26 3 49 31 69 42 30z m305 -54 c2 -2 1 -9 -2 -17 -4 -10
-23 -15 -62 -16 -53 -1 -56 0 -44 17 8 9 18 20 23 24 8 6 76 0 85 -8z m-919
-111 c0 -5 -5 -15 -10 -23 -8 -12 -10 -11 -10 8 0 12 5 22 10 22 6 0 10 -3 10
-7z m-1781 -33 c20 -5 53 -12 74 -15 43 -7 47 -22 12 -55 -24 -22 -25 -22 -52
-5 -15 10 -38 27 -50 37 -12 11 -26 17 -32 13 -16 -10 -51 4 -51 21 0 17 45
19 99 4z m2557 -91 c23 -33 26 -45 18 -67 -5 -15 -17 -28 -27 -30 -13 -3 -17
4 -17 29 0 39 -30 108 -47 109 -14 0 -17 13 -7 23 11 10 50 -22 80 -64z
m-1108 -4 c-3 -3 -9 2 -12 12 -6 14 -5 15 5 6 7 -7 10 -15 7 -18z m422 -5 c0
-5 -2 -10 -4 -10 -3 0 -8 5 -11 10 -3 6 -1 10 4 10 6 0 11 -4 11 -10z m140
-81 c0 -4 -7 -6 -15 -3 -8 4 -15 10 -15 15 0 4 7 6 15 3 8 -4 15 -10 15 -15z
m-100 -29 c0 -5 -2 -10 -4 -10 -3 0 -8 5 -11 10 -3 6 -1 10 4 10 6 0 11 -4 11
-10z m-937 -100 c-3 -11 -10 -23 -16 -27 -7 -4 -8 0 -4 11 4 10 7 22 7 27 0 5
4 9 9 9 5 0 7 -9 4 -20z m1631 -109 c15 -17 16 -26 7 -68 -16 -74 -23 -247
-10 -280 8 -22 6 -47 -7 -110 -16 -72 -21 -83 -40 -83 -11 0 -35 13 -51 29
-17 16 -42 37 -56 46 -14 9 -29 30 -32 47 -6 26 -2 35 25 61 24 23 31 36 27
55 -7 34 1 52 23 52 21 0 32 23 23 46 -3 8 0 27 8 40 10 19 10 30 2 43 -9 14
-9 23 1 37 12 18 28 66 25 80 -1 7 22 24 32 24 3 0 14 -9 23 -19z m-744 -110
c0 -5 -9 -19 -21 -32 -11 -13 -18 -18 -14 -11 3 6 1 12 -4 12 -6 0 -3 9 7 19
19 21 32 26 32 12z m30 -36 c0 -9 -6 -12 -16 -8 -13 5 -13 7 -2 14 17 11 18
11 18 -6z m41 -28 c-10 -9 -11 -8 -5 6 3 10 9 15 12 12 3 -3 0 -11 -7 -18z
m19 -81 c-1 -19 -2 -19 -15 4 -20 35 -19 62 0 36 8 -11 15 -29 15 -40z m120
44 c0 -5 -5 -10 -11 -10 -5 0 -7 5 -4 10 3 6 8 10 11 10 2 0 4 -4 4 -10z m270
-106 c-18 -21 -24 -10 -9 18 8 14 14 18 17 10 2 -7 -2 -19 -8 -28z m40 -33 c0
-5 -7 -11 -15 -15 -15 -5 -20 5 -8 17 9 10 23 9 23 -2z m-686 -226 c-4 -8 -10
-15 -15 -15 -4 0 -6 7 -3 15 4 8 10 15 15 15 4 0 6 -7 3 -15z m126 -84 c0 -5
-6 -14 -14 -20 -12 -10 -13 -8 -9 8 5 21 23 30 23 12z m-50 -5 c0 -3 -4 -8
-10 -11 -5 -3 -10 -1 -10 4 0 6 5 11 10 11 6 0 10 -2 10 -4z m116 -11 c-21
-16 -32 -13 -21 4 3 6 14 11 23 11 15 -1 15 -2 -2 -15z m414 0 c0 -8 -4 -15
-10 -15 -5 0 -10 7 -10 15 0 8 5 15 10 15 6 0 10 -7 10 -15z m-596 -31 c22
-21 20 -31 -8 -49 -24 -16 -56 -11 -56 8 0 9 39 57 46 57 1 0 10 -7 18 -16z
m146 -4 c0 -5 -2 -10 -4 -10 -3 0 -8 5 -11 10 -3 6 -1 10 4 10 6 0 11 -4 11
-10z m80 0 c0 -5 -5 -10 -11 -10 -5 0 -7 5 -4 10 3 6 8 10 11 10 2 0 4 -4 4
-10z m-34 -35 c9 -8 12 -19 9 -25 -7 -11 -35 12 -35 29 0 15 9 14 26 -4z m84
7 c0 -13 -12 -22 -22 -16 -10 6 -1 24 13 24 5 0 9 -4 9 -8z m-310 -314 c0 -16
-3 -19 -11 -11 -6 6 -8 16 -5 22 11 17 16 13 16 -11z m-50 -49 c0 -5 -4 -9
-10 -9 -5 0 -10 7 -10 16 0 8 5 12 10 9 6 -3 10 -10 10 -16z"/>
<path d="M2802 3779 c-10 -15 -11 -24 -3 -32 15 -15 46 16 38 37 -9 22 -20 20
-35 -5z"/>
<path d="M2762 3660 c0 -19 2 -27 5 -17 2 9 2 25 0 35 -3 9 -5 1 -5 -18z"/>
<path d="M1975 3320 c-3 -5 -1 -10 4 -10 6 0 11 5 11 10 0 6 -2 10 -4 10 -3 0
-8 -4 -11 -10z"/>
</g>
</svg>
